<?xml version="1.0" standalone="no"?>
<!DOCTYPE svg PUBLIC "-//W3C//DTD SVG 20010904//EN"
 "http://www.w3.org/TR/2001/REC-SVG-20010904/DTD/svg10.dtd">
<svg version="1.0" xmlns="http://www.w3.org/2000/svg"
 width="201.000000pt" height="192.000000pt" viewBox="0 0 201.000000 192.000000"
 preserveAspectRatio="xMidYMid meet">
<metadata>
Created by potrace 1.16, written by Peter Selinger 2001-2019
</metadata>
<g transform="translate(0.000000,192.000000) scale(0.100000,-0.100000)"
fill="#000000" stroke="none">
<path d="M0 971 c0 -787 2 -950 14 -960 10 -8 280 -10 1002 -9 l989 3 3 958 2
957 -1005 0 -1005 0 0 -949z m1420 789 c104 -23 149 -61 136 -114 -9 -36 -46
-43 -104 -18 -69 30 -157 43 -332 51 l-155 7 88 28 c171 54 272 66 367 46z
m-142 -136 c280 -50 504 -223 386 -300 -38 -25 -68 -10 -168 84 -104 97 -183
148 -301 193 -124 46 -127 49 -60 43 33 -3 97 -12 143 -20z m-293 1 c225 -39
419 -170 564 -379 67 -97 76 -143 36 -180 -18 -17 -39 -26 -60 -26 -37 0 -32
-5 -185 183 l-95 116 -13 -77 c-23 -144 -110 -276 -209 -318 -45 -19 -57 -18
-92 12 -24 20 -31 34 -31 62 0 33 9 45 100 132 97 93 100 97 100 140 0 55 -27
102 -69 119 -39 17 -72 8 -115 -29 -18 -17 -37 -30 -40 -30 -4 0 -29 16 -57
35 -28 19 -60 35 -70 35 -62 0 -114 -65 -107 -135 6 -52 24 -76 106 -144 34
-29 69 -63 79 -77 36 -55 1 -134 -59 -134 -68 0 -166 81 -213 178 -37 73 -45
191 -21 274 33 115 131 212 246 242 72 19 99 19 205 1z m-283 -823 c10 -12 7
-20 -22 -43 -35 -29 -31 -41 4 -14 11 8 37 15 59 15 l39 0 -31 -35 c-36 -41
-62 -90 -85 -159 -15 -44 -15 -51 -1 -72 9 -15 25 -24 40 -24 23 0 25 4 25 45
0 53 16 89 57 127 101 95 198 10 133 -117 -15 -29 -17 -42 -9 -52 20 -23 38
-14 66 35 24 41 28 57 28 129 l0 81 53 15 c61 17 61 17 33 -72 l-19 -60 47 24
c69 35 97 40 127 20 21 -14 25 -22 20 -46 -3 -17 -17 -45 -31 -64 l-26 -33 23
-16 c12 -9 32 -16 43 -16 18 0 20 5 17 39 -6 63 46 145 108 170 24 9 24 10 3
10 -28 1 -37 15 -29 46 7 26 45 43 68 29 7 -4 24 -8 38 -8 28 -1 39 -29 19
-52 -9 -11 -23 -14 -43 -10 l-31 5 27 -14 c35 -19 48 -44 48 -90 0 -60 -45
-132 -102 -161 -15 -8 -56 -14 -93 -14 -60 0 -69 3 -95 29 l-29 28 -57 -28
c-31 -16 -71 -29 -89 -29 -18 0 -38 -7 -45 -15 -15 -18 -84 -21 -78 -3 3 7 -6
21 -18 31 -21 16 -26 17 -53 2 -20 -10 -58 -15 -111 -15 -73 0 -83 3 -105 25
-14 13 -25 31 -25 39 0 13 -4 13 -35 1 -94 -40 -138 73 -70 177 14 21 39 47
55 56 27 17 28 19 9 30 -25 16 -24 37 1 55 28 19 126 19 142 -1z"/>
</g>
</svg>
