<?xml version="1.0" standalone="no"?>
<!DOCTYPE svg PUBLIC "-//W3C//DTD SVG 20010904//EN"
 "http://www.w3.org/TR/2001/REC-SVG-20010904/DTD/svg10.dtd">
<svg version="1.0" xmlns="http://www.w3.org/2000/svg"
 width="201.000000pt" height="192.000000pt" viewBox="0 0 201.000000 192.000000"
 preserveAspectRatio="xMidYMid meet">

<g transform="translate(0.000000,192.000000) scale(0.100000,-0.100000)"
fill="#000000" stroke="none">
<path d="M1275 1733 c-16 -2 -73 -16 -125 -30 -52 -14 -105 -28 -118 -31 -61
-13 -21 -22 95 -22 135 0 258 -17 333 -45 42 -16 95 -23 104 -14 3 2 7 15 11
29 9 37 -24 75 -82 94 -51 17 -167 28 -218 19z"/>
<path d="M1139 1606 c8 -9 19 -16 26 -16 27 0 161 -62 228 -107 40 -26 105
-80 144 -120 66 -66 76 -73 113 -73 31 0 43 5 56 25 37 57 -14 121 -155 194
-102 52 -214 84 -375 106 -45 6 -49 5 -37 -9z"/>
<path d="M810 1596 c-110 -32 -190 -101 -238 -204 -22 -49 -26 -71 -26 -152
-1 -87 2 -101 31 -160 35 -71 86 -127 148 -159 55 -29 82 -27 116 10 49 52 41
71 -70 179 -104 100 -120 128 -106 190 4 17 20 44 37 60 41 42 83 40 142 -5
26 -19 49 -35 52 -35 3 0 24 16 47 35 26 23 51 35 70 35 54 0 117 -65 117
-122 0 -38 -41 -94 -112 -153 -76 -62 -103 -104 -93 -144 11 -44 34 -61 81
-61 103 0 229 165 249 328 4 31 12 52 19 52 7 0 33 -26 58 -57 166 -211 177
-223 216 -223 38 0 82 46 82 85 0 50 -70 148 -189 265 -91 91 -120 113 -201
153 -150 76 -335 111 -430 83z"/>
<path d="M717 1340 c-30 -24 -36 -57 -11 -67 20 -8 66 36 62 61 -4 28 -21 30
-51 6z"/>
</g>
</svg>
