<?xml version="1.0" standalone="no"?>
<!DOCTYPE svg PUBLIC "-//W3C//DTD SVG 20010904//EN"
 "http://www.w3.org/TR/2001/REC-SVG-20010904/DTD/svg10.dtd">
<svg version="1.0" xmlns="http://www.w3.org/2000/svg"
 width="201.000000pt" height="192.000000pt" viewBox="0 0 201.000000 192.000000"
 preserveAspectRatio="xMidYMid meet">
<metadata>
Created by potrace 1.16, written by Peter Selinger 2001-2019
</metadata>
<g transform="translate(0.000000,192.000000) scale(0.100000,-0.100000)"
fill="#000000" stroke="none">
<path d="M1265 1744 c-11 -2 -45 -9 -75 -15 -92 -19 -211 -60 -207 -73 2 -6
32 -13 68 -16 41 -3 58 -8 46 -12 -10 -5 -15 -12 -12 -18 4 -6 -8 -10 -29 -10
-19 0 -38 5 -42 11 -4 8 -39 10 -108 7 -82 -4 -113 -10 -158 -30 -78 -36 -139
-95 -179 -175 -32 -64 -34 -72 -34 -172 0 -94 4 -113 27 -164 34 -71 120 -159
181 -182 41 -15 47 -16 76 -1 31 16 61 61 61 91 0 34 -34 78 -111 141 -56 47
-82 75 -86 95 -7 38 -3 44 28 41 38 -4 73 41 66 85 -3 18 -2 33 2 33 4 0 27
-15 51 -32 24 -18 49 -37 56 -42 9 -7 25 1 53 27 22 20 52 39 65 43 33 8 79
-27 101 -76 15 -34 15 -40 2 -66 -19 -37 -39 -59 -108 -117 -70 -59 -94 -101
-85 -150 10 -52 49 -80 103 -74 33 3 56 16 99 52 84 72 133 164 149 278 3 26
9 47 13 47 4 0 52 -57 107 -126 124 -157 165 -178 230 -118 41 38 35 96 -17
175 -63 93 -211 239 -303 298 -57 37 -71 50 -50 45 62 -13 179 -90 269 -176
103 -99 139 -115 184 -81 58 43 35 120 -56 181 -115 78 -219 119 -392 152 -37
7 -30 8 38 5 57 -2 108 -12 162 -30 91 -32 123 -29 138 14 8 23 6 35 -8 59
-21 34 -31 42 -80 60 -36 13 -199 25 -235 16z"/>
<path d="M228 252 c-22 -4 -24 -32 -3 -32 12 0 15 -13 15 -55 l0 -55 235 0
c219 0 235 1 235 18 0 13 9 18 30 20 24 2 30 -2 30 -18 0 -21 -34 -29 -43 -10
-3 6 -4 5 -3 -2 1 -7 13 -15 27 -19 l24 -7 -25 -2 c-19 -2 -21 -3 -7 -7 10 -3
27 3 36 12 10 9 22 15 27 14 38 -7 54 2 54 31 0 17 -4 30 -9 30 -4 0 -6 -12
-3 -26 4 -20 1 -25 -9 -22 -8 3 -13 12 -13 21 1 9 -2 14 -7 11 -5 -3 -9 -1 -9
4 0 5 15 14 33 20 25 8 27 10 10 11 -13 1 -32 -8 -42 -18 -17 -17 -21 -18 -32
-5 -24 30 -79 11 -79 -28 0 -17 -15 -18 -226 -18 l-226 0 3 64 c4 70 3 74 -23
68z"/>
<path d="M1214 217 c-3 -8 -4 -39 -2 -68 l3 -54 295 0 295 0 3 28 c4 36 -13
57 -49 57 -20 0 -28 5 -31 20 -6 41 -23 24 -26 -27 l-3 -53 -230 0 -229 0 0
49 c0 49 -15 76 -26 48z"/>
</g>
</svg>
