<?xml version="1.0" standalone="no"?>
<!DOCTYPE svg PUBLIC "-//W3C//DTD SVG 20010904//EN"
 "http://www.w3.org/TR/2001/REC-SVG-20010904/DTD/svg10.dtd">
<svg version="1.0" xmlns="http://www.w3.org/2000/svg"
 width="201.000000pt" height="192.000000pt" viewBox="0 0 201.000000 192.000000"
 preserveAspectRatio="xMidYMid meet">

<g transform="translate(0.000000,192.000000) scale(0.100000,-0.100000)"
fill="#000000" stroke="none">
<path d="M0 960 l0 -960 1005 0 1005 0 0 960 0 960 -1005 0 -1005 0 0 -960z
m645 -180 c3 -6 15 -5 31 2 20 9 28 9 40 -3 8 -9 12 -22 9 -31 -8 -21 -55 -42
-67 -30 -6 6 -27 7 -49 5 -35 -5 -39 -4 -39 17 0 36 58 67 75 40z m289 -26
c22 -9 20 -47 -5 -70 -38 -34 -79 18 -43 57 19 21 24 22 48 13z m530 -21 c4
-5 20 -8 34 -8 18 0 28 -6 30 -18 6 -32 -16 -46 -71 -44 -46 2 -52 5 -55 25
-6 39 37 69 62 45z m-697 -45 c-40 -50 -58 -84 -81 -152 -15 -44 -15 -51 -1
-72 10 -16 25 -24 45 -24 27 0 29 2 23 30 -8 43 21 113 63 150 44 38 104 42
128 8 22 -31 20 -86 -4 -133 -15 -29 -17 -42 -9 -52 19 -22 38 -15 64 25 30
46 46 123 36 179 -8 39 -7 41 19 47 15 3 40 8 55 12 26 6 26 6 19 -32 -3 -22
-12 -54 -20 -71 -7 -18 -11 -33 -10 -33 2 0 24 11 47 25 47 27 117 33 137 13
20 -20 14 -52 -17 -94 -27 -36 -28 -40 -14 -56 9 -10 29 -18 46 -18 26 0 29 2
23 25 -10 40 15 106 56 147 30 30 46 38 75 38 52 0 73 -23 73 -80 0 -37 -7
-59 -32 -96 -42 -63 -85 -84 -166 -84 -58 0 -67 3 -92 30 l-28 30 -44 -25
c-23 -14 -64 -28 -90 -31 -26 -4 -53 -13 -59 -20 -14 -17 -69 -19 -69 -3 0 7
-10 21 -23 33 -22 20 -23 21 -57 4 -23 -12 -58 -18 -105 -18 -77 0 -110 15
-126 56 -7 21 -12 23 -28 14 -37 -19 -79 -12 -98 16 -56 86 45 246 145 231 23
-4 46 -1 62 8 14 8 40 14 58 15 l33 0 -34 -42z m-520 -454 c-3 -3 -12 -4 -19
-1 -8 3 -5 6 6 6 11 1 17 -2 13 -5z m228 -124 c231 0 234 0 237 21 4 30 33 47
56 33 21 -14 27 -48 10 -60 -7 -5 -128 -8 -280 -6 l-268 3 2 62 2 62 3 -57 4
-58 234 0z m996 0 l239 0 1 53 c1 28 4 42 6 30 3 -16 11 -23 28 -23 41 0 55
-11 55 -41 l0 -29 -290 0 -290 0 2 58 2 57 3 -52 4 -53 240 0z m-603 18 c-3
-48 -5 -53 -28 -55 l-25 -3 25 12 c24 11 24 12 3 15 -63 12 -52 76 15 82 10 1
12 -13 10 -51z m72 6 c0 -32 -2 -34 -32 -33 -31 2 -31 2 -5 6 20 3 27 10 27
27 0 12 -6 28 -12 35 -11 10 -10 11 5 6 11 -5 17 -18 17 -41z m130 11 c0 -34
1 -35 40 -35 32 0 40 4 40 19 0 24 -25 45 -42 35 -10 -5 -10 -4 -2 5 20 22 56
-5 52 -37 -3 -26 -4 -27 -73 -27 -67 0 -70 1 -73 24 -3 15 3 30 14 38 31 22
44 16 44 -22z m126 -51 c-4 -13 -12 -24 -18 -24 -9 0 -9 3 0 12 7 7 13 30 13
53 2 32 3 34 6 11 3 -15 2 -39 -1 -52z"/>
<path d="M584 601 c-26 -41 -45 -121 -27 -121 14 0 38 29 62 77 41 82 13 116
-35 44z"/>
<path d="M865 572 c-34 -23 -75 -115 -56 -126 16 -10 58 32 75 74 20 50 11 74
-19 52z"/>
<path d="M1413 558 c-29 -32 -43 -63 -43 -94 0 -25 1 -26 23 -12 25 17 67 85
67 111 0 24 -23 21 -47 -5z"/>
<path d="M1135 521 c-39 -24 -90 -79 -82 -87 19 -19 127 60 127 92 0 19 -9 18
-45 -5z"/>
<path d="M724 146 c-10 -26 4 -48 28 -44 17 2 23 10 23 28 0 18 -6 26 -23 28
-13 2 -25 -3 -28 -12z"/>
<path d="M1720 136 c0 -23 4 -26 36 -26 31 0 35 3 32 23 -2 17 -11 23 -35 25
-30 3 -33 1 -33 -22z"/>
<path d="M826 157 c-21 -16 -12 -47 15 -47 14 0 19 7 19 30 0 33 -7 37 -34 17z"/>
<path d="M1031 161 c-18 -11 -10 -45 12 -49 12 -3 17 3 17 22 0 29 -10 38 -29
27z"/>
</g>
</svg>
